<svg width="178" height="144" viewBox="0 0 178 144" fill="none" xmlns="http://www.w3.org/2000/svg">
<g id="Asset 23 1" clip-path="url(#clip0_2_22)">
<g id="Layer 2">
<g id="Layer 1">
<path id="Vector" d="M86.9902 144C78.9998 133.354 56.5753 112.201 0 101.785V12.4456C6.32899 13.6199 12.4285 14.9831 18.1988 16.5023V93.3965L19.7029 93.7488C49.2181 100.704 66.0178 112.965 74.9058 122.024C76.6403 123.785 78.2796 125.638 79.8167 127.576C80.0122 127.826 80.2065 128.077 80.3935 128.323C80.7058 128.73 80.9937 129.122 81.2656 129.497C81.4058 129.685 81.5471 129.88 81.6788 130.068C82.5372 131.278 83.2776 132.398 83.9001 133.429C84.1731 133.883 84.4312 134.314 84.6638 134.721C85.5196 136.201 86.2776 137.736 86.9328 139.317C86.952 139.372 86.9711 139.423 86.9902 139.469V144Z" fill="#2ECC71"/>
<path id="Vector_2" d="M86.9881 112.628V130.228C84.4065 125.982 81.3546 122.042 77.8908 118.485C68.7883 109.14 51.759 96.5683 22.0952 89.3003V0C50.1391 7.0459 66.2633 18.8766 74.9069 27.6882C77.2398 30.0502 79.394 32.5838 81.3517 35.2679L81.3878 35.7526C67.4126 38.5795 56.8951 50.8564 56.8951 65.576C56.8951 81.8424 70.8257 95.1282 86.9881 95.9651V112.628Z" fill="#3498DB"/>
<path id="Vector_3" d="M91.0098 139.474C91.0278 139.426 91.048 139.374 91.0682 139.318C91.7231 137.737 92.4803 136.201 93.3351 134.72C93.5698 134.313 93.8269 133.882 94.0999 133.428C94.7224 132.395 95.4628 131.274 96.3211 130.067C96.4539 129.879 96.5941 129.684 96.7333 129.496C97.0063 129.12 97.2952 128.729 97.6064 128.322L98.1833 127.575C99.7197 125.637 101.359 123.784 103.093 122.023C111.979 112.962 128.782 100.703 158.297 93.7478L159.802 93.3955V16.5013C165.568 14.9822 171.671 13.6189 178 12.4446V101.784C121.424 112.201 99.0033 133.354 91.0098 144V139.474Z" fill="#2ECC71"/>
<path id="Vector_4" d="M155.907 1.00781V90.2996C126.244 97.5676 109.214 110.139 100.11 119.485C96.6447 123.041 93.5911 126.981 91.0077 131.228V95.6534C105.705 93.4169 118.155 80.8026 118.155 65.5739C118.155 51.9187 109.102 40.3634 96.6335 36.5106L96.6505 36.2757C98.6082 33.5917 100.762 31.0581 103.095 28.6961C111.739 19.8833 127.864 8.04944 155.907 1.00781Z" fill="#3498DB"/>
<path id="Vector_5" d="M100.953 66.0681L94.1265 69.9497L84.3675 75.4979L77.451 79.4297V51.6614L82.8272 54.9569L94.7044 62.2366L100.953 66.0681Z" fill="#2ECC71"/>
</g>
</g>
</g>
<defs>
<clipPath id="clip0_2_22">
<rect width="178" height="144" fill="white"/>
</clipPath>
</defs>
</svg>
