<svg xmlns="http://www.w3.org/2000/svg" viewBox="0 0 694.94 457.15"><defs><style>.cls-1{fill:#fff;}.cls-2{fill:#2ecc71;}.cls-3{fill:#3498db;}</style></defs><g id="Layer_2" data-name="Layer 2"><g id="Layer_1-2" data-name="Layer 1"><path class="cls-1" d="M118.52,426.79H65.72a19.18,19.18,0,0,0,6.14,13.3,19.44,19.44,0,0,0,13.55,5q11.53,0,16.3-9.66h15.43a31.15,31.15,0,0,1-11.35,15.61q-8.22,6.09-20.38,6.09a35.29,35.29,0,0,1-17.75-4.46,31.69,31.69,0,0,1-12.29-12.54,38.22,38.22,0,0,1-4.45-18.75,39.11,39.11,0,0,1,4.33-18.75,30.4,30.4,0,0,1,12.16-12.48,36.3,36.3,0,0,1,18-4.39,35.11,35.11,0,0,1,17.43,4.27,30.17,30.17,0,0,1,11.92,12A36.13,36.13,0,0,1,119,419.77,45.13,45.13,0,0,1,118.52,426.79ZM104.1,415.26a16.3,16.3,0,0,0-5.65-12.67,20.16,20.16,0,0,0-13.67-4.77,18.37,18.37,0,0,0-12.67,4.71,19.66,19.66,0,0,0-6.27,12.73Z"/><path class="cls-1" d="M132.63,402.71a31.52,31.52,0,0,1,28.28-16.93,30.17,30.17,0,0,1,14.23,3.2,28.85,28.85,0,0,1,9.72,8v-10h14.43V456H184.86V445.73a28.29,28.29,0,0,1-9.9,8.15,32,32,0,0,1-30.61-1.31,32.46,32.46,0,0,1-11.72-12.79,39.32,39.32,0,0,1-4.33-18.63A38.22,38.22,0,0,1,132.63,402.71ZM181.92,409a20.72,20.72,0,0,0-7.72-8,20.14,20.14,0,0,0-10.28-2.76,20.31,20.31,0,0,0-18,10.6A24.7,24.7,0,0,0,143,421.15a25.76,25.76,0,0,0,2.95,12.54,20.81,20.81,0,0,0,7.78,8.22,20.22,20.22,0,0,0,20.5.06,20.58,20.58,0,0,0,7.72-8.09,25.42,25.42,0,0,0,2.94-12.48A25.13,25.13,0,0,0,181.92,409Z"/><path class="cls-1" d="M240.74,389.86a24.62,24.62,0,0,1,12.35-2.95v14.8h-3.64q-8.4,0-12.73,4.26t-4.32,14.8v36.38H218.1V388h14.3v10A22.41,22.41,0,0,1,240.74,389.86Z"/><path class="cls-1" d="M315.74,390.3a24,24,0,0,1,10.09,10q3.65,6.65,3.64,16.05v40.77H315.3V418.52q0-9.28-4.64-14.24T298,399.33q-8,0-12.73,4.95t-4.7,14.24v38.63h-14.3V388h14.3v7.9a23.74,23.74,0,0,1,9-6.65,28.85,28.85,0,0,1,11.61-2.38A31,31,0,0,1,315.74,390.3Z"/><path class="cls-1" d="M360,452.69a31.94,31.94,0,0,1-12.42-12.54A37.82,37.82,0,0,1,343,421.4a37.18,37.18,0,0,1,4.64-18.69,32.16,32.16,0,0,1,12.67-12.54,38.83,38.83,0,0,1,35.87,0,32.16,32.16,0,0,1,12.67,12.54,37.18,37.18,0,0,1,4.64,18.69,36.34,36.34,0,0,1-4.77,18.69,33,33,0,0,1-13,12.6,37.39,37.39,0,0,1-18.12,4.46A35.35,35.35,0,0,1,360,452.69Zm28-10.59a20.15,20.15,0,0,0,7.84-7.91,25.45,25.45,0,0,0,3-12.79,26,26,0,0,0-2.89-12.73,19.46,19.46,0,0,0-7.65-7.84A21,21,0,0,0,378,398.2a20.67,20.67,0,0,0-10.23,2.63,18.86,18.86,0,0,0-7.46,7.84,26.88,26.88,0,0,0-2.76,12.73q0,11.16,5.71,17.25a18.86,18.86,0,0,0,14.36,6.08A21.35,21.35,0,0,0,388,442.1Z"/><path class="cls-1" d="M454.38,444.35,474,388h15.18l-26.34,69.11H445.73L419.52,388h15.3Z"/><path class="cls-1" d="M499.47,402.71a31.52,31.52,0,0,1,28.28-16.93A30.21,30.21,0,0,1,542,389a29,29,0,0,1,9.72,8v-10h14.42V456H551.71V445.73a28.42,28.42,0,0,1-9.91,8.15,32,32,0,0,1-30.6-1.31,32.49,32.49,0,0,1-11.73-12.79,39.44,39.44,0,0,1-4.33-18.63A38.34,38.34,0,0,1,499.47,402.71ZM548.76,409a20.69,20.69,0,0,0-7.71-8,20.2,20.2,0,0,0-10.29-2.76,20.51,20.51,0,0,0-10.28,2.7,20.22,20.22,0,0,0-7.71,7.9,24.59,24.59,0,0,0-2.95,12.35,25.65,25.65,0,0,0,2.95,12.54,20.72,20.72,0,0,0,7.77,8.22,20,20,0,0,0,10.22,2.82A20.2,20.2,0,0,0,541.05,442a20.56,20.56,0,0,0,7.71-8.09,25.42,25.42,0,0,0,3-12.48A25.13,25.13,0,0,0,548.76,409Z"/><path class="cls-1" d="M694.43,426.79h-52.8a19.18,19.18,0,0,0,6.15,13.3,19.41,19.41,0,0,0,13.54,5q11.53,0,16.31-9.66h15.42a31.09,31.09,0,0,1-11.35,15.61q-8.21,6.09-20.38,6.09a35.25,35.25,0,0,1-17.74-4.46,31.64,31.64,0,0,1-12.3-12.54,38.33,38.33,0,0,1-4.45-18.75,39.11,39.11,0,0,1,4.33-18.75,30.43,30.43,0,0,1,12.17-12.48,36.24,36.24,0,0,1,18-4.39,35.18,35.18,0,0,1,17.44,4.27,30.08,30.08,0,0,1,11.91,12,36.14,36.14,0,0,1,4.27,17.75A43.87,43.87,0,0,1,694.43,426.79ZM680,415.26a16.29,16.29,0,0,0-5.64-12.67,20.18,20.18,0,0,0-13.67-4.77A18.34,18.34,0,0,0,648,402.53a19.66,19.66,0,0,0-6.27,12.73Z"/><path class="cls-1" d="M14.3,445.61H43.77v11.54H0V370H14.3Z"/><path class="cls-1" d="M601.62,399.7V438q0,3.89,1.82,5.58t6.21,1.69h8.78v11.92H607.14q-9.66,0-14.8-4.52T587.2,438V399.7h-8.15V388h8.15V370.86h14.42V388h16.81V399.7Z"/><path class="cls-2" d="M343.06,314.38C325.53,291.13,276.33,245,152.2,222.21v-195c13.88,2.57,27.27,5.54,39.93,8.86V203.9l3.3.77c64.75,15.18,101.62,42,121.11,61.73a151.8,151.8,0,0,1,10.78,12.12l1.26,1.63c.69.89,1.32,1.74,1.92,2.56l.91,1.25q2.82,4,4.87,7.34c.6,1,1.16,1.93,1.67,2.82a84.33,84.33,0,0,1,5,10c0,.12.09.23.13.33Z"/><path class="cls-3" d="M343.05,245.88v38.43a143.33,143.33,0,0,0-20-25.65c-20-20.4-57.33-47.85-122.42-63.72V0c61.53,15.37,96.91,41.21,115.88,60.45A148.12,148.12,0,0,1,330.69,77l.08,1.06C300.1,84.23,277,111,277,143.16c0,35.52,30.56,64.52,66,66.35Z"/><path class="cls-2" d="M351.88,304.5l.12-.34a85.17,85.17,0,0,1,5-10c.51-.89,1.08-1.83,1.68-2.82q2-3.39,4.87-7.34c.29-.41.6-.84.91-1.25.59-.82,1.23-1.67,1.91-2.56l1.27-1.63a149.62,149.62,0,0,1,10.77-12.12c19.49-19.79,56.36-46.55,121.12-61.73l3.3-.77V36c12.65-3.32,26-6.3,39.93-8.86v195C418.61,245,369.4,291.13,351.88,314.38Z"/><path class="cls-3" d="M494.26,2.2V197.14C429.18,213,391.82,240.45,371.84,260.85a144.64,144.64,0,0,0-20,25.65V208.83c32.25-4.88,59.57-32.42,59.57-65.67,0-29.81-19.87-55-47.23-63.45l0-.51a147.23,147.23,0,0,1,14.14-16.55C397.36,43.41,432.74,17.57,494.26,2.2Z"/><polygon class="cls-2" points="373.69 144.24 358.71 152.71 337.3 164.82 322.13 173.41 322.13 112.78 333.92 119.98 359.98 135.87 373.69 144.24"/></g></g></svg>