<svg xmlns="http://www.w3.org/2000/svg" viewBox="0 0 540.82 435.35"><defs><style>.cls-1{fill:#fff;}</style></defs><g id="Layer_2" data-name="Layer 2"><g id="Layer_1-2" data-name="Layer 1"><path class="cls-1" d="M264.3,435.35C240,403.16,171.89,339.22,0,307.72V37.63c19.23,3.55,37.77,7.67,55.29,12.26V282.36l4.57,1.06c89.68,21,140.73,58.09,167.73,85.49a210.35,210.35,0,0,1,14.92,16.79l1.75,2.25c1,1.23,1.82,2.41,2.65,3.55.43.57.85,1.16,1.26,1.73q3.9,5.47,6.74,10.16c.83,1.37,1.62,2.67,2.33,3.9a120.58,120.58,0,0,1,6.89,13.9c.06.17.12.32.17.47Z"/><path class="cls-1" d="M264.3,340.5v53.21a199.88,199.88,0,0,0-27.64-35.52C209,329.93,157.26,291.93,67.13,270V0c85.2,21.29,134.2,57.07,160.46,83.71a201.39,201.39,0,0,1,19.58,22.92l.11,1.47c-42.46,8.54-74.41,45.65-74.41,90.15,0,49.18,42.32,89.34,91.43,91.88Z"/><path class="cls-1" d="M276.51,421.66c.06-.14.12-.3.18-.47a120.58,120.58,0,0,1,6.89-13.9c.71-1.23,1.5-2.53,2.32-3.9q2.85-4.69,6.75-10.16c.41-.57.83-1.16,1.26-1.73.83-1.14,1.7-2.32,2.65-3.56l1.75-2.25a210.32,210.32,0,0,1,14.92-16.78c27-27.4,78-64.46,167.73-85.49l4.57-1.06V49.89c17.52-4.59,36.06-8.71,55.29-12.27v270.1c-171.9,31.5-240,95.44-264.31,127.63Z"/><path class="cls-1" d="M473.69,3.05V273c-90.12,22-141.87,60-169.52,88.23a199.54,199.54,0,0,0-27.66,35.52V289.19c44.65-6.76,82.48-44.9,82.48-90.94C359,157,331.48,122,293.6,110.39l0-.71a202.6,202.6,0,0,1,19.59-22.92C339.5,60.11,388.49,24.33,473.69,3.05Z"/><polygon class="cls-1" points="306.73 199.74 285.99 211.47 256.33 228.25 235.32 240.14 235.32 156.18 251.66 166.15 287.74 188.16 306.73 199.74"/></g></g></svg>